Coordinates
version=1
nRows=23
nColumns=28
inDegrees=yes

Units are S.I. units (second, meters, Newtons, ...)
Angles are in degrees.

endheader
time	pelvis_tilt	pelvis_list	pelvis_rotation	pelvis_tx	pelvis_ty	pelvis_tz	hip_flexion_r	hip_adduction_r	hip_rotation_r	knee_angle_r	ankle_angle_r	subtalar_angle_r	mtp_angle_r	hip_flexion_l	hip_adduction_l	hip_rotation_l	knee_angle_l	socket_flexion	socket_adduction	socket_rotation	socket_tx	socket_ty	socket_tz	foot_flex	lumbar_extension	lumbar_bending	lumbar_rotation
      0.63333333	     -0.31365747	     -2.92547513	      7.56516652	     -0.03356565	      0.98964042	      0.29503905	     24.53894564	      3.16852716	     -7.17263938	     -5.89760815	     16.72150608	    -17.97867690	    -14.79694096	    -29.01691826	     -5.03236067	     17.48985304	      7.94353554	      5.84319343	      0.00000000	      0.00000000	      0.00000000	      0.00254360	      0.00000000	      8.30809404	     -9.88276096	      2.98333572	     -5.27693792
      0.63750000	     -0.23708132	     -3.01277390	      7.55741123	     -0.02712408	      0.98874402	      0.29515743	     24.77806216	      3.32261669	     -6.93004797	     -6.91321798	     16.40285718	    -18.08277678	    -14.69500721	    -29.31705994	     -5.11161915	     17.41181001	      7.66374946	      5.86966439	      0.00000000	      0.00000000	      0.00000000	      0.00248991	      0.00000000	      8.25015449	     -9.92478170	      3.20848879	     -5.36668231
      0.64166667	     -0.17673637	     -3.11582282	      7.61804966	     -0.02071724	      0.98788588	      0.29518155	     24.94997087	      3.47620309	     -6.60257503	     -7.77711562	     16.11805592	    -18.06674513	    -14.63952208	    -29.54267487	     -5.23817380	     17.47929909	      7.28390563	      5.86163412	      0.00000000	      0.00000000	      0.00000000	      0.00231516	      0.00000000	      8.19806306	     -9.94219062	      3.45504524	     -5.38941518
      0.64583333	     -0.21132069	     -3.34111149	      7.14502780	     -0.01371311	      0.98653839	      0.29597795	     25.41894858	      3.94484947	     -6.08096122	     -9.02177191	     15.57590844	    -18.26773804	    -13.45309980	    -30.03610544	     -5.24430129	     16.73707977	      7.60495632	      6.25159671	      0.00000000	      0.00000000	      0.00000000	      0.00246694	      0.00000000	      8.12227343	     -9.78847532	      3.76306420	     -5.05926161
      0.65000000	     -0.04977714	     -3.47558046	      7.04915249	     -0.00708460	      0.98574439	      0.29619199	     25.52490887	      4.18612364	     -5.87064028	     -9.92057707	     13.52604773	    -19.07670747	     -7.76822082	    -30.44729814	     -5.31810207	     16.51742887	      7.35559716	      6.34606629	      0.00000000	      0.00000000	      0.00000000	      0.00234541	      0.00000000	      8.02442026	     -9.91394271	      4.01315184	     -4.73140596
      0.65416667	      0.02842439	     -3.58520181	      7.13792118	     -0.00060127	      0.98508121	      0.29623992	     25.66099790	      4.34070930	     -5.60351968	    -10.81189735	     13.22143271	    -19.01549990	     -7.76750411	    -30.62134233	     -5.45471577	     16.61305089	      6.86859623	      6.34709723	      0.00000000	      0.00000000	      0.00000000	      0.00211591	      0.00000000	      7.86771979	     -9.93036317	      4.26674946	     -4.80528982
      0.65833333	      0.11086406	     -3.73726580	      6.96600820	      0.00613544	      0.98424074	      0.29656140	     25.98678839	      4.59118961	     -5.57890248	    -12.08593178	     12.74576139	    -19.03035127	     -7.66733722	    -30.90307540	     -5.46639319	     16.23031449	      6.48616741	      6.38632456	      0.00000000	      0.00000000	      0.00000000	      0.00188027	      0.00000000	      7.67348362	     -9.95964081	      4.56911937	     -4.93663702
      0.66250000	      0.17807929	     -3.88887223	      6.99002158	      0.01274746	      0.98356589	      0.29669358	     26.12773148	      4.80490101	     -5.28663507	    -12.98465128	     12.44211743	    -18.95412392	     -7.61971300	    -31.13201919	     -5.62651288	     16.26135754	      6.19986470	      6.55661884	      0.00000000	      0.00000000	      0.00000000	      0.00162504	      0.00000000	      7.51257896	     -9.94473268	      4.85338184	     -4.93759636
      0.66666667	      0.16457962	     -4.08584771	      6.47634555	      0.01979760	      0.98243174	      0.29744605	     26.64015213	      5.19190608	     -5.19453519	    -14.44115964	     11.62954875	    -18.74582690	     -5.03781393	    -31.43031005	     -5.49266624	     15.48043483	      5.97824314	      6.73153266	      0.00000000	      0.00000000	      0.00000000	      0.00137595	      0.00000000	      7.27220528	     -9.85162488	      5.10894269	     -4.20432902
      0.67083333	      0.26128001	     -4.25799539	      6.47373065	      0.02641886	      0.98192320	      0.29764693	     26.75576813	      5.43801465	     -4.99222324	    -15.37153520	     11.27678645	    -18.71522516	     -4.99223434	    -31.63250041	     -5.64347657	     15.48572742	      5.56701117	      6.86602234	      0.00000000	      0.00000000	      0.00000000	      0.00106742	      0.00000000	      7.02758103	     -9.88657504	      5.41961700	     -4.30546857
      0.67500000	      0.40956552	     -4.48207938	      6.27421568	      0.03336649	      0.98138345	      0.29791860	     26.91215952	      5.76014367	     -5.02890744	    -16.50847050	     10.80188152	    -18.72277039	     -4.80152549	    -31.86682775	     -5.66373792	     14.97747643	      4.93398013	      6.86305441	      0.00000000	      0.00000000	      0.00000000	      0.00066464	      0.00000000	      6.73368300	     -9.94335210	      5.81477384	     -4.38559686
      0.67916667	      0.54696399	     -4.69466506	      6.09252120	      0.04012001	      0.98099002	      0.29822512	     26.99028389	      6.08485102	     -4.86294194	    -17.46817708	     10.32124519	    -18.55217187	     -3.84230172	    -31.94879648	     -5.67375050	     14.60801451	      3.98491039	      6.69485100	      0.00000000	      0.00000000	      0.00000000	      0.00012559	      0.00000000	      6.42713884	    -10.02750196	      6.15851157	     -4.10978699
      0.68333333	      0.66636588	     -4.85753686	      5.97080468	      0.04701367	      0.98060665	      0.29849580	     27.10742176	      6.31852843	     -4.86466356	    -18.52012706	      9.94460607	    -18.55111808	     -3.66832846	    -32.12583669	     -5.70597822	     14.35011096	      3.42972335	      6.82381051	      0.00000000	      0.00000000	      0.00000000	     -0.00022543	      0.00000000	      6.08667181	    -10.05962139	      6.45778873	     -4.13122434
      0.68750000	      0.75111290	     -4.90230593	      5.89521565	      0.05379744	      0.98032760	      0.29855143	     27.25107268	      6.33691076	     -5.08265141	    -19.53658334	      8.61985671	    -18.46736462	      1.49039612	    -31.94686775	     -5.55697802	     14.15329912	      2.02528920	      6.46189749	      0.00000000	      0.00000000	      0.00000000	     -0.00072701	      0.00000000	      5.77055657	    -10.07894376	      6.62383243	     -4.05509568
      0.69166667	      0.84705625	     -5.07924842	      5.83754066	      0.06064172	      0.98011505	      0.29875947	     27.26945124	      6.58041039	     -4.95341450	    -20.37391907	      8.38985939	    -18.42436295	      1.48193036	    -32.05995582	     -5.65562515	     14.07846072	      1.51788820	      6.71118603	      0.00000000	      0.00000000	      0.00000000	     -0.00115689	      0.00000000	      5.39984527	    -10.10305966	      6.93045562	     -4.04300458
      0.69583333	      0.99708493	     -5.32102863	      5.60911933	      0.06760319	      0.97989847	      0.29908027	     27.31276209	      6.91132889	     -5.00147512	    -21.37177456	      8.10926285	    -18.36659301	      1.48743570	    -32.18747030	     -5.67980837	     13.65408552	      0.76333002	      6.77387205	      0.00000000	      0.00000000	      0.00000000	     -0.00169394	      0.00000000	      4.93061215	    -10.17864746	      7.31827365	     -4.00297862
      0.70000000	      1.27431041	     -5.51939419	      5.39216446	      0.07451492	      0.98016600	      0.29927170	     27.07935040	      7.20700026	     -5.00294953	    -22.11059391	      7.98402130	    -17.90254483	      1.81351684	    -32.00877132	     -5.54061160	     12.99177539	     -1.21942476	      6.09720866	      0.00000000	      0.00000000	      0.00000000	     -0.00211232	      0.00000000	      4.58896978	    -10.39286718	      7.63089281	     -3.50959355
      0.70416667	      1.37556623	     -5.46872137	      5.34243464	      0.08116727	      0.98027991	      0.29934298	     27.12591726	      7.12431286	     -5.19712108	    -23.09554909	      7.84693970	    -17.50459109	      2.37165976	    -31.60052926	     -5.28968669	     12.82722055	     -3.07996940	      5.59826632	      0.00000000	      0.00000000	      0.00000000	     -0.00248594	      0.00000000	      4.20200390	    -10.45088287	      7.67341638	     -3.51633258
      0.70833333	      1.48627972	     -5.67500446	      5.14291304	      0.08823021	      0.98022483	      0.29963160	     27.07952870	      7.40380972	     -5.22403807	    -23.90962600	      7.68510883	    -17.41755076	      2.42301547	    -31.63870279	     -5.30840482	     12.48709069	     -3.80824242	      5.77321127	      0.00000000	      0.00000000	      0.00000000	     -0.00297583	      0.00000000	      3.70254713	    -10.46180714	      8.00960845	     -3.52459073
      0.71250000	      1.66821518	     -5.64018908	      5.10089905	      0.09484218	      0.98068506	      0.29961663	     26.91673583	      7.33715676	     -5.42836463	    -24.66282590	      7.67576763	    -16.78896760	      3.07958894	    -31.02496720	     -5.01781094	     12.14235310	     -6.41741991	      4.84947901	      0.00000000	      0.00000000	      0.00000000	     -0.00308119	      0.00000000	      3.36244661	    -10.61216469	      8.06037266	     -3.34846908
      0.71666667	      1.78983892	     -5.80548600	      4.93711425	      0.10180799	      0.98090538	      0.29976850	     26.76178185	      7.54123181	     -5.51950514	    -25.30746945	      7.63923392	    -16.39483241	      3.45098753	    -30.70415586	     -4.94197656	     11.67948868	     -8.08994155	      4.49057621	      0.00000000	      0.00000000	      0.00000000	     -0.00334251	      0.00000000	      2.94455792	    -10.64047096	      8.34563662	     -3.22226469
      0.72083333	      1.92096649	     -5.96248043	      4.72171293	      0.10886106	      0.98103511	      0.30005182	     26.62625975	      7.75758667	     -5.60875181	    -26.04348089	      7.55216379	    -16.29252117	      3.52840972	    -30.65673234	     -4.90073962	     11.25482972	     -8.98229061	      4.63039537	      0.00000000	      0.00000000	      0.00000000	     -0.00377036	      0.00000000	      2.49209451	    -10.66855553	      8.61811938	     -3.22497715
      0.72500000	      2.15913786	     -5.89923944	      4.71333920	      0.11523976	      0.98178442	      0.30004728	     26.29723018	      7.66539695	     -5.78305150	    -26.60691477	      7.66379965	    -15.59410712	      4.08054113	    -29.86128254	     -4.60900998	     10.88989503	    -12.10059722	      3.44421209	      0.00000000	      0.00000000	      0.00000000	     -0.00339486	      0.00000000	      2.18733388	    -10.91892941	      8.61352091	     -2.96430599
